<svg xmlns="http://www.w3.org/2000/svg"  viewBox="0 0 50 50" width="50px" height="50px"><path d="M 11.716797 1.0253906 C 10.263519 1.182365 9 2.4101944 9 4.0019531 L 9 19.388672 C 9 21.377152 10.184162 23.181989 12.007812 23.974609 L 15.90625 25.667969 L 12.123047 27.199219 C 10.23864 27.960469 9 29.793885 9 31.824219 L 9 46.003906 C 9 48.094474 11.183341 49.563033 13.123047 48.78125 L 38.496094 38.552734 C 40.009934 37.942143 41.00471 36.465115 40.998047 34.833984 L 41 15.503906 L 41 15.5 C 41.000932 15.072388 40.90882 14.645153 40.740234 14.242188 L 42.658203 14.242188 L 38.728516 12.351562 L 38.708984 12.341797 C 38.682016 12.328791 13.193359 1.25 13.193359 1.25 C 12.706643 1.038352 12.201223 0.97306586 11.716797 1.0253906 z M 11.886719 2.9960938 C 12.05013 2.9833813 12.223201 3.0105855 12.396484 3.0859375 C 12.396484 3.0859375 37.814797 14.129578 37.841797 14.142578 L 38.046875 14.242188 L 38.037109 14.242188 L 38.363281 14.408203 C 38.460121 14.462343 38.551955 14.53047 38.636719 14.615234 C 38.883908 14.862425 39.00064 15.177353 39 15.498047 C 38.99843 15.815016 38.881033 16.124825 38.636719 16.369141 C 38.537759 16.468101 38.36596 16.568148 38.097656 16.691406 C 38.094656 16.692806 38.094897 16.693912 38.091797 16.695312 L 36.40625 17.376953 L 11 6.1171875 L 11 4.0019531 C 11 3.4352118 11.396486 3.034231 11.886719 2.9960938 z M 11 11.074219 L 30.556641 19.742188 L 18.505859 24.617188 L 12.804688 22.140625 C 11.706338 21.663245 11 20.586192 11 19.388672 L 11 11.074219 z M 39 18.464844 L 38.998047 34.841797 L 38.998047 34.84375 C 39.001347 35.66062 38.510207 36.39181 37.748047 36.699219 L 12.376953 46.925781 C 11.686659 47.203999 11 46.741339 11 46.003906 L 11 31.824219 C 11 30.604552 11.737453 29.511484 12.873047 29.052734 L 38.902344 18.523438 L 38.923828 18.513672 C 38.945148 18.503872 38.97775 18.475124 39 18.464844 z M 27.158203 26 C 26.806203 26 26.444844 26.067938 26.089844 26.210938 L 23 27.455078 L 23 27.458984 L 23 32.765625 L 22 33.169922 L 22 35.328125 L 23 34.925781 L 23 36.439453 L 22 36.84375 L 22 39 L 23 38.597656 L 23 40 L 25 39.193359 L 25 37.791016 L 28 36.582031 L 28 34.425781 L 25 35.634766 L 25 34.121094 L 26.974609 33.326172 C 28.802609 32.590172 30 30.818656 30 28.847656 C 30 27.213656 28.661203 26 27.158203 26 z M 27.158203 28 C 27.563203 28 28 28.324656 28 28.847656 C 28 30.008656 27.303563 31.038656 26.226562 31.472656 L 25 31.966797 L 25 28.808594 L 26.839844 28.064453 C 26.945844 28.022453 27.052203 28 27.158203 28 z"/></svg>